<?xml version="1.0" standalone="no"?>
<!DOCTYPE svg PUBLIC "-//W3C//DTD SVG 20010904//EN"
 "http://www.w3.org/TR/2001/REC-SVG-20010904/DTD/svg10.dtd">
<svg version="1.0" xmlns="http://www.w3.org/2000/svg"
 width="24.000000pt" height="24.000000pt" viewBox="0 0 24.000000 24.000000"
 preserveAspectRatio="xMidYMid meet">

<g transform="translate(0.000000,24.000000) scale(0.100000,-0.100000)"
fill="#000000" stroke="none">
<path d="M74 225 c-4 -8 -17 -15 -31 -15 -15 0 -23 -5 -21 -12 6 -18 190 -18
196 0 2 7 -6 12 -21 12 -14 0 -27 7 -31 15 -3 10 -19 15 -46 15 -27 0 -43 -5
-46 -15z m76 -5 c0 -5 -13 -10 -30 -10 -16 0 -30 5 -30 10 0 6 14 10 30 10 17
0 30 -4 30 -10z"/>
<path d="M35 93 c4 -43 9 -81 12 -85 6 -10 140 -10 146 0 3 4 8 42 12 85 l7
77 -92 0 -92 0 7 -77z m54 -11 c-1 -47 -3 -52 -9 -27 -12 45 -12 97 0 90 6 -3
9 -32 9 -63z m41 8 c0 -33 -4 -60 -10 -60 -6 0 -10 27 -10 60 0 33 4 60 10 60
6 0 10 -27 10 -60z m31 -25 l-9 -40 -1 56 c-1 31 2 59 7 63 11 12 14 -35 3
-79z"/>
</g>
</svg>
