<?xml version="1.0" standalone="no"?>
<!DOCTYPE svg PUBLIC "-//W3C//DTD SVG 20010904//EN"
 "http://www.w3.org/TR/2001/REC-SVG-20010904/DTD/svg10.dtd">
<svg version="1.0" xmlns="http://www.w3.org/2000/svg"
 width="64.000000pt" height="64.000000pt" viewBox="0 0 64.000000 64.000000"
 preserveAspectRatio="xMidYMid meet">

<g transform="translate(0.000000,64.000000) scale(0.100000,-0.100000)"
fill="#000000" stroke="none">
<path d="M538 619 c-36 -27 -35 -38 5 -77 41 -39 50 -40 76 -3 26 36 27 63 3
84 -24 22 -51 21 -84 -4z"/>
<path d="M0 280 l0 -280 280 0 280 0 0 202 0 202 -40 -39 -40 -39 0 -123 0
-123 -205 0 -205 0 0 200 0 200 128 0 128 0 39 40 39 40 -202 0 -202 0 0 -280z"/>
<path d="M347 427 l-116 -124 37 -36 38 -37 122 123 122 123 -38 37 c-21 20
-40 37 -44 37 -3 0 -58 -56 -121 -123z"/>
<path d="M177 219 c-15 -34 -25 -64 -23 -66 1 -2 31 9 65 24 l62 28 -39 38
-38 38 -27 -62z"/>
</g>
</svg>
